<svg width="32" height="31" xmlns="http://www.w3.org/2000/svg" xmlns:xlink="http://www.w3.org/1999/xlink"><defs><linearGradient x1="50%" y1="0%" x2="50%" y2="100%" id="prefix__a"><stop stop-color="#98C4FF" offset="0%"/><stop stop-color="#458FF1" offset="100%"/></linearGradient><filter x="-16.6%" y="-17%" width="166.2%" height="168.1%" filterUnits="objectBoundingBox" id="prefix__b"><feOffset dx="1" dy="1" in="SourceAlpha" result="shadowOffsetOuter1"/><feGaussianBlur stdDeviation=".5" in="shadowOffsetOuter1" result="shadowBlurOuter1"/><feColorMatrix values="0 0 0 0 0.190601511 0 0 0 0 0.449317683 0 0 0 0 0.796635282 0 0 0 0.287731251 0" in="shadowBlurOuter1"/></filter><path d="M21.354 2.408v5.15c0 .402.325.727.727.727h5.313l-6.04-5.877z" id="prefix__c"/></defs><g fill="none" fill-rule="evenodd"><path d="M0 0h32v31H0z"/><path d="M16 31C7.163 31 0 24.06 0 15.5 0 6.94 7.163 0 16 0s16 6.94 16 15.5v15.418l-10.163.07.041.012H16z" fill="#E5F1FE" fill-rule="nonzero"/><path d="M27.394 22.326v4.767a2.182 2.182 0 01-2.026 2.176l-.156.006H7.596a2.182 2.182 0 01-2.176-2.026l-.006-.156v-4.767h21.98zm-15.501-8.075l2.75 7.29h-2.366l-.36-1.203H9.343l-.354 1.204H6.677l2.75-7.291h2.466zm7.245 0c.818 0 1.431.194 1.839.582.408.387.611.94.611 1.656 0 .736-.222 1.311-.666 1.726-.444.414-1.122.621-2.034.621H17.65v2.706h-2.27V14.25h3.758zm6.012 0v7.29h-2.266v-7.29h2.266zm-14.515 1.89l-.804 2.62h1.612l-.808-2.62zm7.66-.408h-.645v1.626h.554c.436 0 .742-.075.919-.226a.728.728 0 00.264-.58.808.808 0 00-.23-.582c-.152-.159-.44-.238-.863-.238zm3.059-13.325l6.04 5.877v4.842H5.414V4.59c0-1.153.894-2.097 2.026-2.176l.156-.006h13.758z" fill="url(#prefix__a)" fill-rule="nonzero"/><g fill-rule="nonzero"><use fill="#000" filter="url(#prefix__b)" xlink:href="#prefix__c"/><use fill="#FFF" xlink:href="#prefix__c"/></g></g></svg>
