<svg width="32" height="31" xmlns="http://www.w3.org/2000/svg" xmlns:xlink="http://www.w3.org/1999/xlink"><defs><filter x="-45%" y="-45.2%" width="280%" height="280.6%" filterUnits="objectBoundingBox" id="prefix__b"><feOffset dx="1" dy="1" in="SourceAlpha" result="shadowOffsetOuter1"/><feGaussianBlur stdDeviation=".5" in="shadowOffsetOuter1" result="shadowBlurOuter1"/><feColorMatrix values="0 0 0 0 0.172936645 0 0 0 0 0.357453766 0 0 0 0 0.603476593 0 0 0 0.244252452 0" in="shadowBlurOuter1"/></filter><filter x="-9.6%" y="-45.2%" width="138.3%" height="280.6%" filterUnits="objectBoundingBox" id="prefix__d"><feOffset dx="1" dy="1" in="SourceAlpha" result="shadowOffsetOuter1"/><feGaussianBlur stdDeviation=".5" in="shadowOffsetOuter1" result="shadowBlurOuter1"/><feColorMatrix values="0 0 0 0 0.172936645 0 0 0 0 0.357453766 0 0 0 0 0.603476593 0 0 0 0.244252452 0" in="shadowBlurOuter1"/></filter><filter x="-45%" y="-45.2%" width="280%" height="280.6%" filterUnits="objectBoundingBox" id="prefix__f"><feOffset dx="1" dy="1" in="SourceAlpha" result="shadowOffsetOuter1"/><feGaussianBlur stdDeviation=".5" in="shadowOffsetOuter1" result="shadowBlurOuter1"/><feColorMatrix values="0 0 0 0 0.172936645 0 0 0 0 0.357453766 0 0 0 0 0.603476593 0 0 0 0.244252452 0" in="shadowBlurOuter1"/></filter><filter x="-9.6%" y="-45.2%" width="138.3%" height="280.6%" filterUnits="objectBoundingBox" id="prefix__h"><feOffset dx="1" dy="1" in="SourceAlpha" result="shadowOffsetOuter1"/><feGaussianBlur stdDeviation=".5" in="shadowOffsetOuter1" result="shadowBlurOuter1"/><feColorMatrix values="0 0 0 0 0.172936645 0 0 0 0 0.357453766 0 0 0 0 0.603476593 0 0 0 0.244252452 0" in="shadowBlurOuter1"/></filter><filter x="-45%" y="-45.2%" width="280%" height="280.6%" filterUnits="objectBoundingBox" id="prefix__j"><feOffset dx="1" dy="1" in="SourceAlpha" result="shadowOffsetOuter1"/><feGaussianBlur stdDeviation=".5" in="shadowOffsetOuter1" result="shadowBlurOuter1"/><feColorMatrix values="0 0 0 0 0.172936645 0 0 0 0 0.357453766 0 0 0 0 0.603476593 0 0 0 0.244252452 0" in="shadowBlurOuter1"/></filter><filter x="-9.6%" y="-45.2%" width="138.3%" height="280.6%" filterUnits="objectBoundingBox" id="prefix__l"><feOffset dx="1" dy="1" in="SourceAlpha" result="shadowOffsetOuter1"/><feGaussianBlur stdDeviation=".5" in="shadowOffsetOuter1" result="shadowBlurOuter1"/><feColorMatrix values="0 0 0 0 0.172936645 0 0 0 0 0.357453766 0 0 0 0 0.603476593 0 0 0 0.244252452 0" in="shadowBlurOuter1"/></filter><rect id="prefix__c" x="0" y="0" width="2.222" height="2.214" rx=".444"/><rect id="prefix__e" x="3.556" y="0" width="10.444" height="2.214" rx=".444"/><rect id="prefix__g" x="0" y="0" width="2.222" height="2.214" rx=".444"/><rect id="prefix__i" x="3.556" y="0" width="10.444" height="2.214" rx=".444"/><rect id="prefix__k" x="0" y="0" width="2.222" height="2.214" rx=".444"/><rect id="prefix__m" x="3.556" y="0" width="10.444" height="2.214" rx=".444"/><linearGradient x1="50%" y1="0%" x2="50%" y2="100%" id="prefix__a"><stop stop-color="#98C4FF" offset="0%"/><stop stop-color="#458FF1" offset="100%"/></linearGradient></defs><g fill="none" fill-rule="evenodd"><path d="M0 0h32v31H0z"/><path d="M16 31C7.163 31 0 24.06 0 15.5 0 6.94 7.163 0 16 0s16 6.94 16 15.5v15.418l-10.163.07.041.012H16z" fill="#E5F1FE" fill-rule="nonzero"/><g fill-rule="nonzero"><path d="M0 2.182v20.731c0 1.205.977 2.182 2.182 2.182h6.424l2.828 3.543 2.829-3.543h6.419a2.182 2.182 0 002.181-2.187l-.05-20.691A2.222 2.222 0 0020.591 0H2.181A2.182 2.182 0 000 2.182z" fill="url(#prefix__a)" transform="translate(4.97 1.965)"/><g transform="translate(9.414 7.722)"><use fill="#000" filter="url(#prefix__b)" xlink:href="#prefix__c"/><use fill="#FFF" xlink:href="#prefix__c"/></g><g transform="translate(9.414 7.722)"><use fill="#000" filter="url(#prefix__d)" xlink:href="#prefix__e"/><use fill="#FFF" xlink:href="#prefix__e"/></g><g transform="translate(9.414 12.594)"><use fill="#000" filter="url(#prefix__f)" xlink:href="#prefix__g"/><use fill="#FFF" xlink:href="#prefix__g"/></g><g transform="translate(9.414 12.594)"><use fill="#000" filter="url(#prefix__h)" xlink:href="#prefix__i"/><use fill="#FFF" xlink:href="#prefix__i"/></g><g><g transform="translate(9.414 17.465)"><use fill="#000" filter="url(#prefix__j)" xlink:href="#prefix__k"/><use fill="#FFF" xlink:href="#prefix__k"/></g><g transform="translate(9.414 17.465)"><use fill="#000" filter="url(#prefix__l)" xlink:href="#prefix__m"/><use fill="#FFF" xlink:href="#prefix__m"/></g></g></g></g></svg>
