<svg width="32" height="31" xmlns="http://www.w3.org/2000/svg" xmlns:xlink="http://www.w3.org/1999/xlink"><defs><linearGradient x1="50%" y1="0%" x2="50%" y2="100%" id="prefix__a"><stop stop-color="#98C4FF" offset="0%"/><stop stop-color="#458FF1" offset="100%"/></linearGradient><filter x="-16.1%" y="-10.8%" width="164.3%" height="143%" filterUnits="objectBoundingBox" id="prefix__b"><feOffset dx="1" dy="1" in="SourceAlpha" result="shadowOffsetOuter1"/><feGaussianBlur stdDeviation=".5" in="shadowOffsetOuter1" result="shadowBlurOuter1"/><feColorMatrix values="0 0 0 0 0 0 0 0 0 0.403921569 0 0 0 0 0.815686275 0 0 0 0.2 0" in="shadowBlurOuter1"/></filter><path id="prefix__c" d="M9.778 2.436H16v9.3l-3.111-2.215-3.111 2.215z"/></defs><g fill="none" fill-rule="evenodd"><path d="M0 0h32v31H0z"/><path d="M16 31C7.163 31 0 24.06 0 15.5 0 6.94 7.163 0 16 0s16 6.94 16 15.5v15.418l-10.163.07.041.012H16z" fill="#E5F1FE" fill-rule="nonzero"/><path d="M27.381 23.914l.008 3.174c0 1.21-.977 2.187-2.182 2.187H7.596a2.182 2.182 0 01-2.182-2.182v-3.179H27.38zM25.116 2.408c1.225 0 2.22.992 2.222 2.217l.04 17.517H5.412L5.414 4.59c0-1.153.894-2.097 2.026-2.176l.156-.006z" fill="url(#prefix__a)" fill-rule="nonzero"/><g fill-rule="nonzero"><use fill="#000" filter="url(#prefix__b)" xlink:href="#prefix__c"/><use fill="#FFF" xlink:href="#prefix__c"/></g></g></svg>
